<svg width="39" height="32" viewBox="0 0 39 32" fill="none" xmlns="http://www.w3.org/2000/svg">
<path d="M8.90998 24.67C8.71998 24.67 8.52998 24.6 8.37998 24.45C8.08998 24.16 8.08998 23.68 8.37998 23.39L14.9 16.87C15.38 16.39 15.38 15.61 14.9 15.13L8.37998 8.61002C8.08998 8.32002 8.08998 7.84002 8.37998 7.55002C8.66998 7.26002 9.14998 7.26002 9.43998 7.55002L15.96 14.07C16.47 14.58 16.76 15.27 16.76 16C16.76 16.73 16.48 17.42 15.96 17.93L9.43998 24.45C9.28998 24.59 9.09998 24.67 8.90998 24.67Z" fill="#56A07F"/>
<path d="M18.88 27.56C18.6267 27.56 18.3734 27.4667 18.1734 27.2667C17.7867 26.88 17.7867 26.24 18.1734 25.8534L26.8667 17.16C27.5067 16.52 27.5067 15.48 26.8667 14.84L18.1734 6.14669C17.7867 5.76003 17.7867 5.12003 18.1734 4.73336C18.56 4.34669 19.2 4.34669 19.5867 4.73336L28.28 13.4267C28.96 14.1067 29.3467 15.0267 29.3467 16C29.3467 16.9734 28.9734 17.8934 28.28 18.5734L19.5867 27.2667C19.3867 27.4534 19.1334 27.56 18.88 27.56Z" fill="#56A07F"/>
</svg>
