<svg width="40" height="40" viewBox="0 0 40 40" fill="none" xmlns="http://www.w3.org/2000/svg">
<path d="M27.05 16.4667H22.875V15.43H27.0517V16.4683L27.05 16.4667ZM20.095 20.7217C20.365 21.1383 20.4983 21.645 20.4983 22.24C20.4983 22.8567 20.3483 23.4067 20.0383 23.895C19.8318 24.238 19.5558 24.5341 19.228 24.764C18.9002 24.9939 18.5279 25.1526 18.135 25.23C17.6527 25.3265 17.1618 25.3734 16.67 25.37H12V15H17.0083C18.27 15.02 19.165 15.3867 19.6933 16.105C20.01 16.545 20.1683 17.0733 20.1683 17.6883C20.1683 18.3217 20.01 18.83 19.6883 19.215C19.5117 19.4317 19.2483 19.6283 18.9 19.805C19.4267 19.9983 19.8267 20.3017 20.095 20.7217ZM14.3917 19.0883H16.5867C17.0367 19.0883 17.4017 19.0033 17.6817 18.8317C17.9633 18.66 18.1033 18.3567 18.1033 17.92C18.1033 17.4367 17.9183 17.1167 17.5467 16.9633C17.1495 16.8444 16.7361 16.7893 16.3217 16.8H14.3917V19.0883ZM18.315 22.0917C18.315 21.5533 18.0933 21.1817 17.655 20.9817C17.4083 20.8683 17.0617 20.81 16.6183 20.805H14.3917V23.5683H16.5833C17.0333 23.5683 17.3833 23.51 17.6333 23.3867C18.0867 23.1617 18.315 22.7317 18.315 22.0917ZM28.6 20.405C28.65 20.745 28.6733 21.2367 28.665 21.88H23.2567C23.2867 22.6267 23.5433 23.1483 24.0333 23.4467C24.3267 23.635 24.6833 23.7267 25.1033 23.7267C25.545 23.7267 25.9033 23.615 26.1817 23.385C26.3474 23.2435 26.4829 23.0701 26.58 22.875H28.5633C28.51 23.3167 28.2717 23.7633 27.8433 24.2183C27.1767 24.94 26.2467 25.3017 25.0483 25.3017C24.0959 25.314 23.1695 24.9907 22.4317 24.3883C21.6783 23.7783 21.2983 22.7883 21.2983 21.4133C21.2983 20.125 21.64 19.1383 22.3217 18.4517C23.005 17.7633 23.89 17.4217 24.98 17.4217C25.625 17.4217 26.2067 17.5367 26.7267 17.7683C27.2433 18.0017 27.6717 18.3667 28.0083 18.8683C28.3133 19.3117 28.5083 19.8217 28.6 20.405ZM26.65 20.5983C26.6133 20.0817 26.44 19.6917 26.13 19.425C25.81 19.1525 25.4001 19.0087 24.98 19.0217C24.48 19.0217 24.095 19.1667 23.82 19.4483C23.545 19.7317 23.3733 20.115 23.3033 20.5983H26.65Z" fill="white"/>
<circle cx="20" cy="20" r="19" stroke="white" stroke-width="2"/>
</svg>
