<svg width="50" height="50" viewBox="0 0 50 50" fill="none" xmlns="http://www.w3.org/2000/svg">
<path opacity="0.4" d="M24.5626 29.604L17.7501 36.4165C17.0001 35.7498 16.2709 35.0623 15.5626 34.354C13.4167 32.1873 11.4792 29.9165 9.75008 27.5415C8.04175 25.1665 6.66675 22.7915 5.66675 20.4373C4.66675 18.0623 4.16675 15.7915 4.16675 13.6248C4.16675 12.2082 4.41675 10.854 4.91675 9.604C5.41675 8.33317 6.20841 7.1665 7.31258 6.12484C8.64591 4.81234 10.1042 4.1665 11.6459 4.1665C12.2292 4.1665 12.8126 4.2915 13.3334 4.5415C13.8751 4.7915 14.3542 5.1665 14.7292 5.70817L19.5626 12.5207C19.9376 13.0415 20.2084 13.5207 20.3959 13.979C20.5834 14.4165 20.6876 14.854 20.6876 15.2498C20.6876 15.7498 20.5417 16.2498 20.2501 16.729C19.9792 17.2082 19.5834 17.7082 19.0834 18.2082L17.5001 19.854C17.2709 20.0832 17.1667 20.354 17.1667 20.6873C17.1667 20.854 17.1876 20.9998 17.2292 21.1665C17.2917 21.3332 17.3542 21.4582 17.3959 21.5832C17.7709 22.2707 18.4167 23.1665 19.3334 24.2498C20.2709 25.3332 21.2709 26.4373 22.3542 27.5415C23.1042 28.2707 23.8334 28.979 24.5626 29.604Z" fill="#080D2A"/>
<path d="M45.771 38.1873C45.771 38.7706 45.6668 39.3748 45.4585 39.9581C45.396 40.1248 45.3335 40.2914 45.2501 40.4581C44.896 41.2081 44.4376 41.9164 43.8335 42.5831C42.8126 43.7081 41.6876 44.5206 40.4168 45.0414C40.396 45.0414 40.3751 45.0623 40.3543 45.0623C39.1251 45.5623 37.7918 45.8331 36.3543 45.8331C34.2293 45.8331 31.9585 45.3331 29.5626 44.3123C27.1668 43.2914 24.771 41.9164 22.396 40.1873C21.5835 39.5831 20.771 38.9789 20.0001 38.3331L26.8126 31.5206C27.396 31.9581 27.9168 32.2914 28.3543 32.5206C28.4585 32.5623 28.5835 32.6248 28.7293 32.6873C28.896 32.7498 29.0626 32.7706 29.2501 32.7706C29.6043 32.7706 29.8751 32.6456 30.1043 32.4164L31.6876 30.8539C32.2085 30.3331 32.7085 29.9373 33.1876 29.6873C33.6668 29.3956 34.146 29.2498 34.6668 29.2498C35.0626 29.2498 35.4793 29.3331 35.9376 29.5206C36.396 29.7081 36.8751 29.9789 37.396 30.3331L44.2918 35.2289C44.8335 35.6039 45.2085 36.0414 45.4376 36.5623C45.646 37.0831 45.771 37.6039 45.771 38.1873Z" fill="#080D2A"/>
</svg>
