<svg width="40" height="40" viewBox="0 0 40 40" fill="none" xmlns="http://www.w3.org/2000/svg">
<path d="M30.8333 7.9834C26.5 15.5667 18.15 19.9167 9.44996 19.1334L4.16666 18.6501" stroke="white" stroke-width="1.5" stroke-miterlimit="10" stroke-linecap="round" stroke-linejoin="round"/>
<path d="M9.16666 32.2835C13.5 24.7002 21.85 20.3501 30.55 21.1335L35.8333 21.6168" stroke="white" stroke-width="1.5" stroke-miterlimit="10" stroke-linecap="round" stroke-linejoin="round"/>
<path d="M12.7166 5L18.0166 11.5834C21.5666 15.9834 24.0832 21.1 25.4166 26.5834L27.4333 34.9" stroke="white" stroke-width="1.5" stroke-miterlimit="10" stroke-linecap="round" stroke-linejoin="round"/>
<path d="M6.66668 10.0002C4.58334 12.7835 3.33334 16.2502 3.33334 20.0002C3.33334 29.2002 10.8 36.6668 20 36.6668C29.2 36.6668 36.6667 29.2002 36.6667 20.0002C36.6667 10.8002 29.2 3.3335 20 3.3335C17.6167 3.3335 15.3333 3.83351 13.2833 4.75017" stroke="white" stroke-width="1.5" stroke-linecap="round" stroke-linejoin="round"/>
</svg>
