<svg width="40" height="40" viewBox="0 0 40 40" fill="none" xmlns="http://www.w3.org/2000/svg">
<rect x="0.5" y="0.5" width="39" height="39" rx="3.5" stroke="white"/>
<path d="M29 21.4231V28H25.1426V21.8625C25.1426 20.3219 24.5846 19.2705 23.1878 19.2705C22.1222 19.2705 21.4868 19.9785 21.2078 20.6652C21.107 20.9107 21.08 21.2523 21.08 21.5939V28H17.2208C17.2208 28 17.273 17.6072 17.2208 16.5309H21.08V18.1551L21.0548 18.1924H21.08V18.1569C21.593 17.3741 22.5074 16.2605 24.5576 16.2605C27.0956 16.2605 29 17.9007 29 21.4231ZM13.1834 11C11.864 11 11 11.8575 11 12.9818C11 14.0848 11.8388 14.9654 13.133 14.9654H13.1582C14.5046 14.9654 15.3416 14.083 15.3416 12.9818C15.3164 11.8575 14.5046 11 13.1834 11ZM11.2286 28H15.0878V16.5309H11.2286V28Z" fill="white"/>
</svg>
