<svg width="50" height="50" viewBox="0 0 50 50" fill="none" xmlns="http://www.w3.org/2000/svg">
<path opacity="0.4" d="M42.9584 17.6041C40.7709 7.97908 32.3751 3.64575 25.0001 3.64575C25.0001 3.64575 25.0001 3.64575 24.9793 3.64575C17.6251 3.64575 9.20844 7.95825 7.02094 17.5833C4.58344 28.3333 11.1668 37.4374 17.1251 43.1666C19.3334 45.2916 22.1668 46.3541 25.0001 46.3541C27.8334 46.3541 30.6668 45.2916 32.8543 43.1666C38.8126 37.4374 45.3959 28.3541 42.9584 17.6041Z" fill="#292D32"/>
<path d="M25.0001 28.0417C28.6245 28.0417 31.5626 25.1036 31.5626 21.4792C31.5626 17.8549 28.6245 14.9167 25.0001 14.9167C21.3757 14.9167 18.4376 17.8549 18.4376 21.4792C18.4376 25.1036 21.3757 28.0417 25.0001 28.0417Z" fill="#292D32"/>
</svg>
