<svg width="18" height="20" viewBox="0 0 18 20" fill="none" xmlns="http://www.w3.org/2000/svg">
<path d="M14.54 6.31014C15.8986 6.31014 17 5.20876 17 3.85014C17 2.49152 15.8986 1.39014 14.54 1.39014C13.1814 1.39014 12.08 2.49152 12.08 3.85014C12.08 5.20876 13.1814 6.31014 14.54 6.31014Z" stroke="white" stroke-width="1.5" stroke-miterlimit="10" stroke-linecap="round" stroke-linejoin="round"/>
<path d="M5.92 3.85014C5.92 2.49014 4.82001 1.39014 3.46001 1.39014C2.10001 1.39014 1 2.49014 1 3.85014C1 5.21014 2.10001 6.31014 3.46001 6.31014" stroke="white" stroke-width="1.5" stroke-miterlimit="10" stroke-linecap="round" stroke-linejoin="round"/>
<path d="M14.54 18.6202C15.9 18.6202 17 17.5202 17 16.1602C17 14.8002 15.9 13.7002 14.54 13.7002C13.18 13.7002 12.08 14.8002 12.08 16.1602" stroke="white" stroke-width="1.5" stroke-miterlimit="10" stroke-linecap="round" stroke-linejoin="round"/>
<path d="M3.46001 18.6099C4.81863 18.6099 5.92 17.5086 5.92 16.1499C5.92 14.7913 4.81863 13.6899 3.46001 13.6899C2.10139 13.6899 1 14.7913 1 16.1499C1 17.5086 2.10139 18.6099 3.46001 18.6099Z" stroke="white" stroke-width="1.5" stroke-miterlimit="10" stroke-linecap="round" stroke-linejoin="round"/>
</svg>
