<svg width="32" height="17" viewBox="0 0 32 17" fill="none" xmlns="http://www.w3.org/2000/svg">
<path fill-rule="evenodd" clip-rule="evenodd" d="M30.5382 2.18025C24.4844 13.4371 12.3914 18.0137 1.15958 11.6763C0.785674 11.4653 0.311516 11.5972 0.100491 11.9665C-0.110534 12.3424 0.0213704 12.8172 0.39528 13.0282C12.4343 19.8272 25.4182 14.9802 31.9072 2.91883C32.1103 2.54294 31.9686 2.06807 31.5907 1.86364C31.2128 1.66581 30.7413 1.80436 30.5382 2.18025Z" fill="#F9C136"/>
<path d="M10.6115 6.84854C11.862 6.84854 12.8758 5.83482 12.8758 4.5843C12.8758 3.33379 11.862 2.32007 10.6115 2.32007C9.36101 2.32007 8.34729 3.33379 8.34729 4.5843C8.34729 5.83482 9.36101 6.84854 10.6115 6.84854Z" fill="#F9C136"/>
<path d="M19.9851 4.43996C21.2112 4.43996 22.2051 3.44605 22.2051 2.21998C22.2051 0.993911 21.2112 0 19.9851 0C18.759 0 17.7651 0.993911 17.7651 2.21998C17.7651 3.44605 18.759 4.43996 19.9851 4.43996Z" fill="#F9C136"/>
</svg>
