<svg width="50" height="50" viewBox="0 0 50 50" fill="none" xmlns="http://www.w3.org/2000/svg">
<path opacity="0.4" d="M35.4167 42.7084H14.5834C8.33335 42.7084 4.16669 39.5834 4.16669 32.2917V17.7084C4.16669 10.4167 8.33335 7.29175 14.5834 7.29175H35.4167C41.6667 7.29175 45.8334 10.4167 45.8334 17.7084V32.2917C45.8334 39.5834 41.6667 42.7084 35.4167 42.7084Z" fill="#080D2A"/>
<path d="M24.9998 26.8124C23.2498 26.8124 21.4789 26.2708 20.1248 25.1666L13.6039 19.9583C12.9373 19.4166 12.8123 18.4374 13.3539 17.7708C13.8956 17.1041 14.8748 16.9791 15.5414 17.5208L22.0623 22.7291C23.6456 23.9999 26.3331 23.9999 27.9164 22.7291L34.4373 17.5208C35.1039 16.9791 36.1039 17.0833 36.6248 17.7708C37.1664 18.4374 37.0623 19.4374 36.3748 19.9583L29.8539 25.1666C28.5206 26.2708 26.7498 26.8124 24.9998 26.8124Z" fill="#080D2A"/>
</svg>
