<svg width="161" height="169" viewBox="0 0 161 169" fill="none" xmlns="http://www.w3.org/2000/svg">
<path fill-rule="evenodd" clip-rule="evenodd" d="M108.084 100.556C104.884 118.649 98.4203 137.114 86.0352 150.671C81.5293 155.604 76.1855 159.238 70.7481 163.008C70.3672 163.273 69.8409 163.178 69.5743 162.796C69.309 162.412 69.4038 161.886 69.7878 161.62C75.1196 157.923 80.3699 154.37 84.7887 149.533C96.9982 136.169 103.32 117.94 106.451 100.104L106.18 100.033C103.241 99.2781 100.553 96.1619 98.4886 91.9385C95.5293 85.885 93.769 77.5946 93.9635 71.5477C94.0515 68.8304 94.5454 66.5523 95.4495 65.0685C96.1538 63.9111 97.1079 63.1965 98.2919 62.9995C100.815 62.5814 103.064 64.4544 104.784 67.743C108.383 74.6199 109.953 87.6634 109.183 93.4488C108.942 95.2553 108.672 97.073 108.368 98.8946C108.881 99.0415 109.385 99.1833 109.88 99.299C111.293 99.6246 112.666 99.7365 114.199 99.0679C116.588 98.0233 118.471 95.9927 119.983 93.584C122.34 89.8232 123.777 85.1332 124.663 81.5436C129.599 61.5517 123.724 45.0376 115.128 31.853C106.445 18.5393 94.9921 8.59563 88.9199 1.87011C88.6069 1.52479 88.6361 0.991716 88.9814 0.678689C89.3267 0.365661 89.8612 0.393137 90.1728 0.740197C96.2848 7.50862 107.802 17.5288 116.541 30.9326C125.368 44.4655 131.368 61.4254 126.304 81.9476C125.38 85.6869 123.868 90.5641 121.414 94.48C119.714 97.1901 117.562 99.4395 114.874 100.615C112.461 101.669 110.38 101.195 108.084 100.556ZM106.734 98.433L106.599 98.3994C104.03 97.7395 101.81 94.8907 100.006 91.1974C97.162 85.3806 95.4642 77.4151 95.6521 71.6014C95.7153 69.608 95.9983 67.8774 96.5543 66.5994C97.0143 65.5459 97.6473 64.8173 98.5678 64.6663C99.4365 64.5195 100.233 64.8206 100.965 65.4169C101.826 66.1155 102.594 67.1964 103.289 68.5243C106.747 75.1327 108.25 87.6666 107.51 93.2257C107.279 94.952 107.022 96.6892 106.734 98.433Z" fill="#3E4366"/>
<path fill-rule="evenodd" clip-rule="evenodd" d="M67.3705 163.059C67.6996 163.227 68.2096 163.318 68.7592 163.408C70.068 163.625 71.6061 163.676 72.3301 163.729C72.7959 163.764 73.1427 164.171 73.1088 164.635C73.0734 165.101 72.6689 165.449 72.2031 165.413C71.3164 165.347 69.2668 165.276 67.7893 164.939C66.9969 164.758 66.353 164.479 65.997 164.144C65.3897 163.577 65.3923 162.741 66.2254 161.743C67.2117 160.563 69.5918 158.808 70.3541 156.36C70.4915 155.916 70.9675 155.667 71.4104 155.806C71.8564 155.945 72.1049 156.418 71.9661 156.864C71.2381 159.197 69.2524 161.013 68.0003 162.303C67.7627 162.548 67.5146 162.867 67.3705 163.059Z" fill="#3E4366"/>
</svg>
